<mxfile host="Electron" agent="Mozilla/5.0 (Windows NT 10.0; Win64; x64) AppleWebKit/537.36 (KHTML, like Gecko) draw.io/24.7.17 Chrome/128.0.6613.36 Electron/32.0.1 Safari/537.36" version="24.7.17">
  <diagram name="Page-1" id="s-1Xge24AGk-_zhSLOcj">
    <mxGraphModel dx="1036" dy="614" grid="1" gridSize="10" guides="1" tooltips="1" connect="1" arrows="1" fold="1" page="1" pageScale="1" pageWidth="850" pageHeight="1100" math="0" shadow="0">
      <root>
        <mxCell id="0" />
        <mxCell id="1" parent="0" />
        <mxCell id="LQtEZGlkrlKJnaAbSItU-1" value="Cust_id" style="ellipse;whiteSpace=wrap;html=1;" vertex="1" parent="1">
          <mxGeometry x="310" y="215" width="100" height="50" as="geometry" />
        </mxCell>
        <mxCell id="LQtEZGlkrlKJnaAbSItU-2" value="Customer" style="rounded=0;whiteSpace=wrap;html=1;" vertex="1" parent="1">
          <mxGeometry x="110" y="240" width="120" height="60" as="geometry" />
        </mxCell>
        <mxCell id="LQtEZGlkrlKJnaAbSItU-3" value="Number" style="ellipse;whiteSpace=wrap;html=1;" vertex="1" parent="1">
          <mxGeometry x="60" y="100" width="100" height="50" as="geometry" />
        </mxCell>
        <mxCell id="LQtEZGlkrlKJnaAbSItU-4" value="Address" style="ellipse;whiteSpace=wrap;html=1;" vertex="1" parent="1">
          <mxGeometry x="280" y="150" width="100" height="50" as="geometry" />
        </mxCell>
        <mxCell id="LQtEZGlkrlKJnaAbSItU-5" value="Name" style="ellipse;whiteSpace=wrap;html=1;" vertex="1" parent="1">
          <mxGeometry x="190" y="85" width="100" height="50" as="geometry" />
        </mxCell>
        <mxCell id="LQtEZGlkrlKJnaAbSItU-6" value="Burger" style="rounded=0;whiteSpace=wrap;html=1;" vertex="1" parent="1">
          <mxGeometry x="210" y="510" width="120" height="60" as="geometry" />
        </mxCell>
        <mxCell id="LQtEZGlkrlKJnaAbSItU-7" value="Size" style="ellipse;whiteSpace=wrap;html=1;" vertex="1" parent="1">
          <mxGeometry x="445" y="550" width="100" height="50" as="geometry" />
        </mxCell>
        <mxCell id="LQtEZGlkrlKJnaAbSItU-8" value="price" style="ellipse;whiteSpace=wrap;html=1;" vertex="1" parent="1">
          <mxGeometry x="60" y="430" width="100" height="50" as="geometry" />
        </mxCell>
        <mxCell id="LQtEZGlkrlKJnaAbSItU-9" value="Borger_Id" style="ellipse;whiteSpace=wrap;html=1;" vertex="1" parent="1">
          <mxGeometry x="445" y="640" width="100" height="50" as="geometry" />
        </mxCell>
        <mxCell id="LQtEZGlkrlKJnaAbSItU-10" value="Type" style="ellipse;whiteSpace=wrap;html=1;" vertex="1" parent="1">
          <mxGeometry x="325" y="680" width="100" height="50" as="geometry" />
        </mxCell>
        <mxCell id="LQtEZGlkrlKJnaAbSItU-11" value="Order" style="rounded=0;whiteSpace=wrap;html=1;" vertex="1" parent="1">
          <mxGeometry x="551" y="210" width="120" height="60" as="geometry" />
        </mxCell>
        <mxCell id="LQtEZGlkrlKJnaAbSItU-12" value="Name" style="ellipse;whiteSpace=wrap;html=1;" vertex="1" parent="1">
          <mxGeometry x="200" y="640" width="100" height="50" as="geometry" />
        </mxCell>
        <mxCell id="LQtEZGlkrlKJnaAbSItU-13" value="Quantity" style="ellipse;whiteSpace=wrap;html=1;" vertex="1" parent="1">
          <mxGeometry x="40" y="550" width="100" height="50" as="geometry" />
        </mxCell>
        <mxCell id="LQtEZGlkrlKJnaAbSItU-14" value="" style="endArrow=classic;html=1;rounded=0;exitX=0.25;exitY=0;exitDx=0;exitDy=0;entryX=0.428;entryY=1.036;entryDx=0;entryDy=0;entryPerimeter=0;" edge="1" parent="1" source="LQtEZGlkrlKJnaAbSItU-2" target="LQtEZGlkrlKJnaAbSItU-3">
          <mxGeometry width="50" height="50" relative="1" as="geometry">
            <mxPoint x="380" y="340" as="sourcePoint" />
            <mxPoint x="430" y="290" as="targetPoint" />
          </mxGeometry>
        </mxCell>
        <mxCell id="LQtEZGlkrlKJnaAbSItU-15" value="" style="endArrow=classic;html=1;rounded=0;exitX=0.5;exitY=0;exitDx=0;exitDy=0;entryX=0;entryY=1;entryDx=0;entryDy=0;" edge="1" parent="1" source="LQtEZGlkrlKJnaAbSItU-2" target="LQtEZGlkrlKJnaAbSItU-5">
          <mxGeometry width="50" height="50" relative="1" as="geometry">
            <mxPoint x="190" y="240" as="sourcePoint" />
            <mxPoint x="163" y="162" as="targetPoint" />
          </mxGeometry>
        </mxCell>
        <mxCell id="LQtEZGlkrlKJnaAbSItU-16" value="" style="endArrow=classic;html=1;rounded=0;exitX=0.897;exitY=0.017;exitDx=0;exitDy=0;entryX=0;entryY=0.5;entryDx=0;entryDy=0;exitPerimeter=0;" edge="1" parent="1" source="LQtEZGlkrlKJnaAbSItU-2" target="LQtEZGlkrlKJnaAbSItU-4">
          <mxGeometry width="50" height="50" relative="1" as="geometry">
            <mxPoint x="200" y="250" as="sourcePoint" />
            <mxPoint x="173" y="172" as="targetPoint" />
          </mxGeometry>
        </mxCell>
        <mxCell id="LQtEZGlkrlKJnaAbSItU-17" value="" style="endArrow=classic;html=1;rounded=0;exitX=1;exitY=0.5;exitDx=0;exitDy=0;" edge="1" parent="1" source="LQtEZGlkrlKJnaAbSItU-2" target="LQtEZGlkrlKJnaAbSItU-1">
          <mxGeometry width="50" height="50" relative="1" as="geometry">
            <mxPoint x="210" y="260" as="sourcePoint" />
            <mxPoint x="183" y="182" as="targetPoint" />
          </mxGeometry>
        </mxCell>
        <mxCell id="LQtEZGlkrlKJnaAbSItU-18" value="" style="endArrow=classic;html=1;rounded=0;entryX=0;entryY=0;entryDx=0;entryDy=0;" edge="1" parent="1" source="LQtEZGlkrlKJnaAbSItU-13" target="LQtEZGlkrlKJnaAbSItU-6">
          <mxGeometry width="50" height="50" relative="1" as="geometry">
            <mxPoint x="220" y="270" as="sourcePoint" />
            <mxPoint x="193" y="192" as="targetPoint" />
          </mxGeometry>
        </mxCell>
        <mxCell id="LQtEZGlkrlKJnaAbSItU-19" value="" style="endArrow=classic;html=1;rounded=0;entryX=0.25;entryY=0;entryDx=0;entryDy=0;exitX=1;exitY=1;exitDx=0;exitDy=0;" edge="1" parent="1" source="LQtEZGlkrlKJnaAbSItU-8" target="LQtEZGlkrlKJnaAbSItU-6">
          <mxGeometry width="50" height="50" relative="1" as="geometry">
            <mxPoint x="236" y="446" as="sourcePoint" />
            <mxPoint x="290" y="490" as="targetPoint" />
          </mxGeometry>
        </mxCell>
        <mxCell id="LQtEZGlkrlKJnaAbSItU-20" value="" style="endArrow=classic;html=1;rounded=0;exitX=0;exitY=0.5;exitDx=0;exitDy=0;entryX=1;entryY=0.25;entryDx=0;entryDy=0;" edge="1" parent="1" source="LQtEZGlkrlKJnaAbSItU-7" target="LQtEZGlkrlKJnaAbSItU-6">
          <mxGeometry width="50" height="50" relative="1" as="geometry">
            <mxPoint x="246" y="456" as="sourcePoint" />
            <mxPoint x="300" y="500" as="targetPoint" />
          </mxGeometry>
        </mxCell>
        <mxCell id="LQtEZGlkrlKJnaAbSItU-21" value="" style="endArrow=classic;html=1;rounded=0;entryX=1;entryY=0.75;entryDx=0;entryDy=0;" edge="1" parent="1" source="LQtEZGlkrlKJnaAbSItU-9" target="LQtEZGlkrlKJnaAbSItU-6">
          <mxGeometry width="50" height="50" relative="1" as="geometry">
            <mxPoint x="424" y="433" as="sourcePoint" />
            <mxPoint x="375" y="490" as="targetPoint" />
          </mxGeometry>
        </mxCell>
        <mxCell id="LQtEZGlkrlKJnaAbSItU-22" value="" style="endArrow=classic;html=1;rounded=0;entryX=0.75;entryY=1;entryDx=0;entryDy=0;exitX=0;exitY=0;exitDx=0;exitDy=0;" edge="1" parent="1" source="LQtEZGlkrlKJnaAbSItU-10" target="LQtEZGlkrlKJnaAbSItU-6">
          <mxGeometry width="50" height="50" relative="1" as="geometry">
            <mxPoint x="443" y="488" as="sourcePoint" />
            <mxPoint x="412" y="499" as="targetPoint" />
          </mxGeometry>
        </mxCell>
        <mxCell id="LQtEZGlkrlKJnaAbSItU-23" value="" style="endArrow=classic;html=1;rounded=0;entryX=0.15;entryY=1.017;entryDx=0;entryDy=0;exitX=0.3;exitY=0;exitDx=0;exitDy=0;exitPerimeter=0;entryPerimeter=0;" edge="1" parent="1" source="LQtEZGlkrlKJnaAbSItU-12" target="LQtEZGlkrlKJnaAbSItU-6">
          <mxGeometry width="50" height="50" relative="1" as="geometry">
            <mxPoint x="450" y="527" as="sourcePoint" />
            <mxPoint x="410" y="520" as="targetPoint" />
          </mxGeometry>
        </mxCell>
        <mxCell id="LQtEZGlkrlKJnaAbSItU-24" value="Order_Id" style="ellipse;whiteSpace=wrap;html=1;" vertex="1" parent="1">
          <mxGeometry x="671" y="85" width="100" height="50" as="geometry" />
        </mxCell>
        <mxCell id="LQtEZGlkrlKJnaAbSItU-25" value="" style="endArrow=classic;html=1;rounded=0;entryX=0.5;entryY=0;entryDx=0;entryDy=0;exitX=0;exitY=1;exitDx=0;exitDy=0;" edge="1" parent="1" source="LQtEZGlkrlKJnaAbSItU-24" target="LQtEZGlkrlKJnaAbSItU-11">
          <mxGeometry width="50" height="50" relative="1" as="geometry">
            <mxPoint x="695" y="128" as="sourcePoint" />
            <mxPoint x="640" y="185" as="targetPoint" />
          </mxGeometry>
        </mxCell>
        <mxCell id="LQtEZGlkrlKJnaAbSItU-26" value="Quantity&lt;span style=&quot;color: rgba(0, 0, 0, 0); font-family: monospace; font-size: 0px; text-align: start; text-wrap: nowrap;&quot;&gt;%3CmxGraphModel%3E%3Croot%3E%3CmxCell%20id%3D%220%22%2F%3E%3CmxCell%20id%3D%221%22%20parent%3D%220%22%2F%3E%3CmxCell%20id%3D%222%22%20value%3D%22Order_Id%22%20style%3D%22ellipse%3BwhiteSpace%3Dwrap%3Bhtml%3D1%3B%22%20vertex%3D%221%22%20parent%3D%221%22%3E%3CmxGeometry%20x%3D%22671%22%20y%3D%2285%22%20width%3D%22100%22%20height%3D%2250%22%20as%3D%22geometry%22%2F%3E%3C%2FmxCell%3E%3CmxCell%20id%3D%223%22%20value%3D%22%22%20style%3D%22endArrow%3Dclassic%3Bhtml%3D1%3Brounded%3D0%3BentryX%3D0.5%3BentryY%3D0%3BentryDx%3D0%3BentryDy%3D0%3BexitX%3D0%3BexitY%3D1%3BexitDx%3D0%3BexitDy%3D0%3B%22%20edge%3D%221%22%20source%3D%222%22%20parent%3D%221%22%3E%3CmxGeometry%20width%3D%2250%22%20height%3D%2250%22%20relative%3D%221%22%20as%3D%22geometry%22%3E%3CmxPoint%20x%3D%22695%22%20y%3D%22128%22%20as%3D%22sourcePoint%22%2F%3E%3CmxPoint%20x%3D%22640%22%20y%3D%22210%22%20as%3D%22targetPoint%22%2F%3E%3C%2FmxGeometry%3E%3C%2FmxCell%3E%3C%2Froot%3E%3C%2FmxGraphModel%3E&lt;/span&gt;" style="ellipse;whiteSpace=wrap;html=1;" vertex="1" parent="1">
          <mxGeometry x="731" y="342.5" width="100" height="50" as="geometry" />
        </mxCell>
        <mxCell id="LQtEZGlkrlKJnaAbSItU-27" value="" style="endArrow=classic;html=1;rounded=0;entryX=0.75;entryY=1;entryDx=0;entryDy=0;" edge="1" parent="1" source="LQtEZGlkrlKJnaAbSItU-26" target="LQtEZGlkrlKJnaAbSItU-11">
          <mxGeometry width="50" height="50" relative="1" as="geometry">
            <mxPoint x="755" y="385.5" as="sourcePoint" />
            <mxPoint x="700" y="467.5" as="targetPoint" />
          </mxGeometry>
        </mxCell>
        <mxCell id="LQtEZGlkrlKJnaAbSItU-28" value="Date" style="ellipse;whiteSpace=wrap;html=1;" vertex="1" parent="1">
          <mxGeometry x="731" y="150" width="100" height="50" as="geometry" />
        </mxCell>
        <mxCell id="LQtEZGlkrlKJnaAbSItU-29" value="" style="endArrow=classic;html=1;rounded=0;entryX=1.02;entryY=0.123;entryDx=0;entryDy=0;exitX=0;exitY=1;exitDx=0;exitDy=0;entryPerimeter=0;" edge="1" parent="1" source="LQtEZGlkrlKJnaAbSItU-28" target="LQtEZGlkrlKJnaAbSItU-11">
          <mxGeometry width="50" height="50" relative="1" as="geometry">
            <mxPoint x="705" y="138" as="sourcePoint" />
            <mxPoint x="650" y="220" as="targetPoint" />
          </mxGeometry>
        </mxCell>
        <mxCell id="LQtEZGlkrlKJnaAbSItU-30" value="Cust_id" style="ellipse;whiteSpace=wrap;html=1;" vertex="1" parent="1">
          <mxGeometry x="720" y="230" width="100" height="50" as="geometry" />
        </mxCell>
        <mxCell id="LQtEZGlkrlKJnaAbSItU-31" value="" style="endArrow=classic;html=1;rounded=0;entryX=1;entryY=0.75;entryDx=0;entryDy=0;exitX=0;exitY=1;exitDx=0;exitDy=0;" edge="1" parent="1" source="LQtEZGlkrlKJnaAbSItU-30" target="LQtEZGlkrlKJnaAbSItU-11">
          <mxGeometry width="50" height="50" relative="1" as="geometry">
            <mxPoint x="743" y="211" as="sourcePoint" />
            <mxPoint x="740" y="290" as="targetPoint" />
          </mxGeometry>
        </mxCell>
        <mxCell id="LQtEZGlkrlKJnaAbSItU-32" value="Amount" style="ellipse;whiteSpace=wrap;html=1;" vertex="1" parent="1">
          <mxGeometry x="531" y="75" width="100" height="50" as="geometry" />
        </mxCell>
        <mxCell id="LQtEZGlkrlKJnaAbSItU-33" value="" style="endArrow=classic;html=1;rounded=0;entryX=0.147;entryY=-0.023;entryDx=0;entryDy=0;exitX=0.5;exitY=1;exitDx=0;exitDy=0;entryPerimeter=0;" edge="1" parent="1" source="LQtEZGlkrlKJnaAbSItU-32" target="LQtEZGlkrlKJnaAbSItU-11">
          <mxGeometry width="50" height="50" relative="1" as="geometry">
            <mxPoint x="555" y="118" as="sourcePoint" />
            <mxPoint x="500" y="200" as="targetPoint" />
          </mxGeometry>
        </mxCell>
        <mxCell id="LQtEZGlkrlKJnaAbSItU-34" value="Borger_Id" style="ellipse;whiteSpace=wrap;html=1;" vertex="1" parent="1">
          <mxGeometry x="608" y="340" width="100" height="50" as="geometry" />
        </mxCell>
        <mxCell id="LQtEZGlkrlKJnaAbSItU-35" value="" style="endArrow=classic;html=1;rounded=0;entryX=0.4;entryY=1.003;entryDx=0;entryDy=0;entryPerimeter=0;" edge="1" parent="1" source="LQtEZGlkrlKJnaAbSItU-34" target="LQtEZGlkrlKJnaAbSItU-11">
          <mxGeometry width="50" height="50" relative="1" as="geometry">
            <mxPoint x="562" y="323" as="sourcePoint" />
            <mxPoint x="540" y="379" as="targetPoint" />
          </mxGeometry>
        </mxCell>
        <mxCell id="LQtEZGlkrlKJnaAbSItU-36" value="Admin" style="rounded=0;whiteSpace=wrap;html=1;" vertex="1" parent="1">
          <mxGeometry x="611" y="600" width="120" height="60" as="geometry" />
        </mxCell>
        <mxCell id="LQtEZGlkrlKJnaAbSItU-37" value="Admin" style="ellipse;whiteSpace=wrap;html=1;" vertex="1" parent="1">
          <mxGeometry x="740" y="670" width="100" height="50" as="geometry" />
        </mxCell>
        <mxCell id="LQtEZGlkrlKJnaAbSItU-38" value="" style="endArrow=classic;html=1;rounded=0;entryX=1.033;entryY=0.65;entryDx=0;entryDy=0;exitX=0.3;exitY=0;exitDx=0;exitDy=0;exitPerimeter=0;entryPerimeter=0;" edge="1" parent="1" source="LQtEZGlkrlKJnaAbSItU-37" target="LQtEZGlkrlKJnaAbSItU-36">
          <mxGeometry width="50" height="50" relative="1" as="geometry">
            <mxPoint x="350" y="667" as="sourcePoint" />
            <mxPoint x="270" y="680" as="targetPoint" />
          </mxGeometry>
        </mxCell>
        <mxCell id="LQtEZGlkrlKJnaAbSItU-39" value="Name" style="ellipse;whiteSpace=wrap;html=1;" vertex="1" parent="1">
          <mxGeometry x="531" y="740" width="100" height="50" as="geometry" />
        </mxCell>
        <mxCell id="LQtEZGlkrlKJnaAbSItU-40" value="" style="endArrow=classic;html=1;rounded=0;exitX=0.3;exitY=0;exitDx=0;exitDy=0;exitPerimeter=0;" edge="1" parent="1" source="LQtEZGlkrlKJnaAbSItU-39">
          <mxGeometry width="50" height="50" relative="1" as="geometry">
            <mxPoint x="270" y="707" as="sourcePoint" />
            <mxPoint x="660" y="650" as="targetPoint" />
          </mxGeometry>
        </mxCell>
        <mxCell id="LQtEZGlkrlKJnaAbSItU-41" value="Number" style="ellipse;whiteSpace=wrap;html=1;" vertex="1" parent="1">
          <mxGeometry x="681" y="770" width="100" height="50" as="geometry" />
        </mxCell>
        <mxCell id="LQtEZGlkrlKJnaAbSItU-42" value="" style="endArrow=classic;html=1;rounded=0;exitX=0.3;exitY=0;exitDx=0;exitDy=0;exitPerimeter=0;" edge="1" parent="1" source="LQtEZGlkrlKJnaAbSItU-41" target="LQtEZGlkrlKJnaAbSItU-36">
          <mxGeometry width="50" height="50" relative="1" as="geometry">
            <mxPoint x="480" y="557" as="sourcePoint" />
            <mxPoint x="400" y="570" as="targetPoint" />
          </mxGeometry>
        </mxCell>
        <mxCell id="LQtEZGlkrlKJnaAbSItU-44" value="place" style="shape=rhombus;perimeter=rhombusPerimeter;whiteSpace=wrap;html=1;align=center;" vertex="1" parent="1">
          <mxGeometry x="365" y="310" width="120" height="60" as="geometry" />
        </mxCell>
        <mxCell id="LQtEZGlkrlKJnaAbSItU-47" value="has" style="shape=rhombus;perimeter=rhombusPerimeter;whiteSpace=wrap;html=1;align=center;" vertex="1" parent="1">
          <mxGeometry x="531" y="440" width="120" height="60" as="geometry" />
        </mxCell>
        <mxCell id="LQtEZGlkrlKJnaAbSItU-54" value="has" style="shape=rhombus;perimeter=rhombusPerimeter;whiteSpace=wrap;html=1;align=center;" vertex="1" parent="1">
          <mxGeometry x="431" y="392.5" width="120" height="60" as="geometry" />
        </mxCell>
        <mxCell id="LQtEZGlkrlKJnaAbSItU-55" style="edgeStyle=orthogonalEdgeStyle;rounded=0;orthogonalLoop=1;jettySize=auto;html=1;exitX=0.5;exitY=1;exitDx=0;exitDy=0;entryX=0;entryY=1;entryDx=0;entryDy=0;" edge="1" parent="1" source="LQtEZGlkrlKJnaAbSItU-12" target="LQtEZGlkrlKJnaAbSItU-12">
          <mxGeometry relative="1" as="geometry" />
        </mxCell>
        <mxCell id="LQtEZGlkrlKJnaAbSItU-56" style="edgeStyle=orthogonalEdgeStyle;rounded=0;orthogonalLoop=1;jettySize=auto;html=1;endArrow=none;endFill=0;startArrow=classic;startFill=1;" edge="1" parent="1" source="LQtEZGlkrlKJnaAbSItU-11" target="LQtEZGlkrlKJnaAbSItU-44">
          <mxGeometry relative="1" as="geometry" />
        </mxCell>
        <mxCell id="LQtEZGlkrlKJnaAbSItU-57" style="edgeStyle=orthogonalEdgeStyle;rounded=0;orthogonalLoop=1;jettySize=auto;html=1;entryX=0.5;entryY=1;entryDx=0;entryDy=0;exitX=0.5;exitY=1;exitDx=0;exitDy=0;endArrow=none;endFill=0;startArrow=classic;startFill=1;" edge="1" parent="1" source="LQtEZGlkrlKJnaAbSItU-44" target="LQtEZGlkrlKJnaAbSItU-2">
          <mxGeometry relative="1" as="geometry">
            <mxPoint x="561" y="250" as="sourcePoint" />
            <mxPoint x="450" y="340" as="targetPoint" />
          </mxGeometry>
        </mxCell>
        <mxCell id="LQtEZGlkrlKJnaAbSItU-58" style="edgeStyle=orthogonalEdgeStyle;rounded=0;orthogonalLoop=1;jettySize=auto;html=1;entryX=0.5;entryY=0;entryDx=0;entryDy=0;exitX=0.25;exitY=1;exitDx=0;exitDy=0;startArrow=classic;startFill=1;endArrow=none;endFill=0;" edge="1" parent="1" source="LQtEZGlkrlKJnaAbSItU-11" target="LQtEZGlkrlKJnaAbSItU-47">
          <mxGeometry relative="1" as="geometry">
            <mxPoint x="561" y="250" as="sourcePoint" />
            <mxPoint x="450" y="340" as="targetPoint" />
          </mxGeometry>
        </mxCell>
        <mxCell id="LQtEZGlkrlKJnaAbSItU-59" style="edgeStyle=orthogonalEdgeStyle;rounded=0;orthogonalLoop=1;jettySize=auto;html=1;entryX=0.5;entryY=0;entryDx=0;entryDy=0;exitX=0.5;exitY=1;exitDx=0;exitDy=0;" edge="1" parent="1" source="LQtEZGlkrlKJnaAbSItU-54" target="LQtEZGlkrlKJnaAbSItU-6">
          <mxGeometry relative="1" as="geometry">
            <mxPoint x="591" y="280" as="sourcePoint" />
            <mxPoint x="601" y="450" as="targetPoint" />
          </mxGeometry>
        </mxCell>
        <mxCell id="LQtEZGlkrlKJnaAbSItU-60" style="edgeStyle=orthogonalEdgeStyle;rounded=0;orthogonalLoop=1;jettySize=auto;html=1;" edge="1" parent="1" target="LQtEZGlkrlKJnaAbSItU-54">
          <mxGeometry relative="1" as="geometry">
            <mxPoint x="550" y="260" as="sourcePoint" />
            <mxPoint x="724" y="627" as="targetPoint" />
          </mxGeometry>
        </mxCell>
        <mxCell id="LQtEZGlkrlKJnaAbSItU-61" style="edgeStyle=orthogonalEdgeStyle;rounded=0;orthogonalLoop=1;jettySize=auto;html=1;entryX=0.5;entryY=0;entryDx=0;entryDy=0;exitX=0.5;exitY=1;exitDx=0;exitDy=0;endArrow=none;endFill=0;startArrow=classic;startFill=1;" edge="1" parent="1" source="LQtEZGlkrlKJnaAbSItU-47" target="LQtEZGlkrlKJnaAbSItU-36">
          <mxGeometry relative="1" as="geometry">
            <mxPoint x="591" y="280" as="sourcePoint" />
            <mxPoint x="601" y="450" as="targetPoint" />
          </mxGeometry>
        </mxCell>
      </root>
    </mxGraphModel>
  </diagram>
</mxfile>
